<mxfile host="Electron" agent="Mozilla/5.0 (Windows NT 10.0; Win64; x64) AppleWebKit/537.36 (KHTML, like Gecko) draw.io/26.0.7 Chrome/128.0.6613.186 Electron/32.2.5 Safari/537.36" version="26.0.7">
  <diagram id="C5RBs43oDa-KdzZeNtuy" name="Page-1">
    <mxGraphModel dx="1338" dy="868" grid="1" gridSize="10" guides="1" tooltips="1" connect="1" arrows="1" fold="1" page="1" pageScale="1" pageWidth="827" pageHeight="1169" math="0" shadow="0">
      <root>
        <mxCell id="WIyWlLk6GJQsqaUBKTNV-0" />
        <mxCell id="WIyWlLk6GJQsqaUBKTNV-1" parent="WIyWlLk6GJQsqaUBKTNV-0" />
        <mxCell id="gMl2_Yt4ELBYdIMrdELi-3" style="edgeStyle=orthogonalEdgeStyle;rounded=0;orthogonalLoop=1;jettySize=auto;html=1;" edge="1" parent="WIyWlLk6GJQsqaUBKTNV-1" source="gMl2_Yt4ELBYdIMrdELi-0" target="gMl2_Yt4ELBYdIMrdELi-1">
          <mxGeometry relative="1" as="geometry" />
        </mxCell>
        <mxCell id="gMl2_Yt4ELBYdIMrdELi-0" value="Thêm sản phẩm mới vào đơn hàng" style="strokeWidth=2;html=1;shape=mxgraph.flowchart.start_2;whiteSpace=wrap;" vertex="1" parent="WIyWlLk6GJQsqaUBKTNV-1">
          <mxGeometry x="80" y="50" width="100" height="100" as="geometry" />
        </mxCell>
        <mxCell id="gMl2_Yt4ELBYdIMrdELi-1" value="Người người chọn sản phẩm, nhập thông tin:&lt;br&gt;+ Thông tin sản phẩm&lt;div&gt;+ Số lượng&lt;/div&gt;&lt;div&gt;+ Đơn giá&lt;/div&gt;" style="rounded=1;whiteSpace=wrap;html=1;absoluteArcSize=1;arcSize=14;strokeWidth=2;" vertex="1" parent="WIyWlLk6GJQsqaUBKTNV-1">
          <mxGeometry x="320" y="50" width="140" height="100" as="geometry" />
        </mxCell>
        <mxCell id="gMl2_Yt4ELBYdIMrdELi-5" style="edgeStyle=orthogonalEdgeStyle;rounded=0;orthogonalLoop=1;jettySize=auto;html=1;entryX=0.5;entryY=0;entryDx=0;entryDy=0;" edge="1" parent="WIyWlLk6GJQsqaUBKTNV-1" source="gMl2_Yt4ELBYdIMrdELi-2" target="gMl2_Yt4ELBYdIMrdELi-1">
          <mxGeometry relative="1" as="geometry">
            <Array as="points">
              <mxPoint x="630" y="30" />
              <mxPoint x="390" y="30" />
            </Array>
          </mxGeometry>
        </mxCell>
        <mxCell id="gMl2_Yt4ELBYdIMrdELi-6" value="Không hợp lệ" style="edgeLabel;html=1;align=center;verticalAlign=middle;resizable=0;points=[];" vertex="1" connectable="0" parent="gMl2_Yt4ELBYdIMrdELi-5">
          <mxGeometry x="-0.1929" y="-4" relative="1" as="geometry">
            <mxPoint as="offset" />
          </mxGeometry>
        </mxCell>
        <mxCell id="gMl2_Yt4ELBYdIMrdELi-8" style="edgeStyle=orthogonalEdgeStyle;rounded=0;orthogonalLoop=1;jettySize=auto;html=1;entryX=0.5;entryY=0;entryDx=0;entryDy=0;" edge="1" parent="WIyWlLk6GJQsqaUBKTNV-1" source="gMl2_Yt4ELBYdIMrdELi-2" target="gMl2_Yt4ELBYdIMrdELi-7">
          <mxGeometry relative="1" as="geometry" />
        </mxCell>
        <mxCell id="gMl2_Yt4ELBYdIMrdELi-9" value="Hợp lệ" style="edgeLabel;html=1;align=center;verticalAlign=middle;resizable=0;points=[];" vertex="1" connectable="0" parent="gMl2_Yt4ELBYdIMrdELi-8">
          <mxGeometry x="0.1818" y="4" relative="1" as="geometry">
            <mxPoint as="offset" />
          </mxGeometry>
        </mxCell>
        <mxCell id="gMl2_Yt4ELBYdIMrdELi-2" value="Kiểm tra thông tin" style="strokeWidth=2;html=1;shape=mxgraph.flowchart.decision;whiteSpace=wrap;" vertex="1" parent="WIyWlLk6GJQsqaUBKTNV-1">
          <mxGeometry x="580" y="50" width="100" height="100" as="geometry" />
        </mxCell>
        <mxCell id="gMl2_Yt4ELBYdIMrdELi-4" style="edgeStyle=orthogonalEdgeStyle;rounded=0;orthogonalLoop=1;jettySize=auto;html=1;entryX=0;entryY=0.5;entryDx=0;entryDy=0;entryPerimeter=0;" edge="1" parent="WIyWlLk6GJQsqaUBKTNV-1" source="gMl2_Yt4ELBYdIMrdELi-1" target="gMl2_Yt4ELBYdIMrdELi-2">
          <mxGeometry relative="1" as="geometry" />
        </mxCell>
        <mxCell id="gMl2_Yt4ELBYdIMrdELi-7" value="Thêm sản phẩm vào đơn hàng" style="rounded=1;whiteSpace=wrap;html=1;absoluteArcSize=1;arcSize=14;strokeWidth=2;" vertex="1" parent="WIyWlLk6GJQsqaUBKTNV-1">
          <mxGeometry x="580" y="260" width="100" height="100" as="geometry" />
        </mxCell>
        <mxCell id="gMl2_Yt4ELBYdIMrdELi-13" value="End" style="strokeWidth=2;html=1;shape=mxgraph.flowchart.start_2;whiteSpace=wrap;" vertex="1" parent="WIyWlLk6GJQsqaUBKTNV-1">
          <mxGeometry x="340" y="260" width="100" height="100" as="geometry" />
        </mxCell>
        <mxCell id="gMl2_Yt4ELBYdIMrdELi-21" style="edgeStyle=orthogonalEdgeStyle;rounded=0;orthogonalLoop=1;jettySize=auto;html=1;entryX=1;entryY=0.5;entryDx=0;entryDy=0;entryPerimeter=0;" edge="1" parent="WIyWlLk6GJQsqaUBKTNV-1" source="gMl2_Yt4ELBYdIMrdELi-7" target="gMl2_Yt4ELBYdIMrdELi-13">
          <mxGeometry relative="1" as="geometry">
            <Array as="points" />
          </mxGeometry>
        </mxCell>
      </root>
    </mxGraphModel>
  </diagram>
</mxfile>
